<svg width="14" height="16" viewBox="0 0 14 16" fill="none" xmlns="http://www.w3.org/2000/svg">
<path d="M9.17423 2.14553C8.79392 2.02412 8.3933 1.97943 7.99559 2.01404C7.59788 2.04865 7.211 2.16187 6.85738 2.34714L6.44353 2.56229L5.4316 0.61676L3.94489 1.39033L4.95682 3.33586L3.68768 3.99581L2.67576 2.05028L2.31992 2.23497L0.877208 2.98533L1.85239 4.86076L0.0944519 5.77502L0.961334 7.4411L2.71975 6.52732L5.87398 12.5916L4.11556 13.5064L4.98245 15.1729L6.74038 14.2582L7.5623 15.8411L7.91862 15.6559L9.36133 14.9056L8.5017 13.2525L9.77374 12.5911L10.6334 14.2437L12.1138 13.4735L11.2542 11.8209L11.6709 11.6044C11.9328 11.4683 12.1736 11.2952 12.386 11.0904C12.7475 10.7397 13.0157 10.3043 13.1663 9.82369C13.2875 9.44325 13.332 9.04255 13.2974 8.64479C13.2627 8.24702 13.1494 7.86009 12.9642 7.50637C12.7766 7.14593 12.5184 6.82693 12.2049 6.56836C11.8914 6.30979 11.5291 6.11694 11.1396 6.00129C11.2686 5.61553 11.3187 5.20775 11.2868 4.80223C11.2549 4.39671 11.1417 4.00177 10.9539 3.64093C10.7709 3.28638 10.5193 2.97166 10.2139 2.71497C9.90837 2.45829 9.55501 2.26474 9.17423 2.14553ZM8.65642 3.7855C8.82194 3.83709 8.97556 3.92106 9.10836 4.03253C9.24116 4.144 9.35048 4.28074 9.42999 4.43481C9.59071 4.7451 9.62188 5.10645 9.51667 5.43968C9.41145 5.77291 9.17843 6.05084 8.86867 6.21257L5.74054 7.83948L4.52362 5.49992L7.65174 3.87301C7.80498 3.79286 7.97259 3.7439 8.14488 3.72896C8.31717 3.71403 8.4907 3.7334 8.65545 3.78598L8.65642 3.7855ZM11.4398 8.29976C11.5201 8.45328 11.5692 8.6212 11.5843 8.79382C11.5993 8.96643 11.5799 9.14031 11.5273 9.3054C11.4757 9.47084 11.3918 9.6244 11.2804 9.75719C11.169 9.88998 11.0324 9.99935 10.8785 10.079L7.75037 11.7059L6.53345 9.36632L9.66158 7.7394C9.97162 7.57859 10.3328 7.54722 10.6659 7.65216C10.999 7.7571 11.277 7.9898 11.4389 8.29927L11.4398 8.29976Z" fill="white"/>
</svg>
