<svg width="42" height="32" viewBox="0 0 42 32" fill="none" xmlns="http://www.w3.org/2000/svg">
<path fill-rule="evenodd" clip-rule="evenodd" d="M20.9965 0C9.39735 0 0 9.11917 0 20.3664V29.0928C0 30.6996 1.3434 32 2.99585 32C4.65059 32 6.00103 30.6996 6.00103 29.0928V20.3664C6.00103 18.7575 7.33754 17.4547 8.99917 17.4547C10.6539 17.4547 11.9975 18.7575 11.9975 20.3664V29.0928C11.9975 30.6996 13.3409 32 14.9956 32C16.6549 32 17.9983 30.6996 17.9983 29.0928V20.3664C17.9983 18.7575 19.3419 17.4547 20.9965 17.4547C22.6581 17.4547 24.0017 18.7575 24.0017 20.3664V29.0928C24.0017 30.6996 25.3451 32 26.9975 32C28.6523 32 29.9957 30.6996 29.9957 29.0928V20.3664C29.9957 18.7575 31.3392 17.4547 33.0008 17.4547C34.6556 17.4547 35.9991 18.7575 35.9991 20.3664V29.0928C35.9991 30.6996 37.3425 32 39.0019 32C40.6566 32 42 30.6996 42 29.0928V20.3664C42 9.11917 32.5958 0 20.9965 0Z" fill="white"/>
</svg>
