<svg width="12" height="19" viewBox="0 0 12 19" fill="none" xmlns="http://www.w3.org/2000/svg">
<path d="M9.71544 10.6088C9.36187 10.1176 8.77084 9.64403 7.94246 9.18803L7.28692 8.85616L8.05444 5.52722C8.06932 5.55477 8.08679 5.57085 8.10695 5.57546C8.12711 5.58011 8.13455 5.59389 8.12927 5.61678C8.63971 6.07178 8.82542 6.6929 8.68631 7.48005L11.0133 8.01654C11.2895 6.63448 11.0788 5.47754 10.3813 4.54566C9.92793 3.93515 9.33696 3.46154 8.60831 3.12486L9.03556 1.27166L6.88991 0.776978L6.47851 2.56157C5.4395 2.46661 4.55927 2.64921 3.83788 3.10936C2.893 3.71075 2.28335 4.60634 2.00908 5.79606C1.71369 7.07728 1.88764 8.11734 2.53094 8.91626C2.87491 9.35699 3.58679 9.85845 4.66655 10.4206L3.84369 13.9898C3.45225 13.755 3.17999 13.4633 3.02697 13.1148C2.85907 12.7388 2.80819 12.2692 2.87433 11.7062L0.577627 11.1767C0.266395 12.5265 0.454267 13.6903 1.14124 14.6679C1.63919 15.361 2.36327 15.9014 3.31358 16.2892L2.99707 17.662L5.14271 18.1566L5.45126 16.8182C6.53587 16.8996 7.45895 16.7148 8.22067 16.264C9.21115 15.649 9.84619 14.7352 10.1257 13.5226C10.3948 12.3557 10.258 11.3845 9.71544 10.6088ZM5.27582 7.77808C4.95969 7.58474 4.74167 7.42605 4.62172 7.30197C4.29167 6.98493 4.18209 6.58619 4.29283 6.10571C4.41417 5.57949 4.69785 5.22323 5.14396 5.03694C5.3771 4.94608 5.64523 4.88747 5.94835 4.86093L5.27582 7.77808ZM6.36777 14.4995C6.25651 14.522 6.12772 14.5285 5.98142 14.5188L6.68558 11.4644C7.03675 11.6899 7.29719 11.8946 7.46702 12.0783C7.75151 12.4089 7.84363 12.7916 7.7434 13.2263C7.57463 13.9585 7.11609 14.3828 6.36777 14.4995Z" fill="white"/>
</svg>
