<svg width="13" height="16" viewBox="0 0 13 16" fill="none" xmlns="http://www.w3.org/2000/svg">
<path d="M12.5658 5.50862C12.3768 5.15702 12.1199 4.84641 11.81 4.59478C11.5001 4.34316 11.1434 4.15551 10.7605 4.0427L10.3138 3.90926L10.9399 1.80805L9.33375 1.32941L8.70813 3.4311L7.33698 3.02304L7.96308 0.921347L7.5763 0.806279L6.01756 0.342621L5.41466 2.36841L3.51554 1.80273L2.97936 3.60273L4.87847 4.16841L2.92715 10.7201L1.02803 10.1544L0.491852 11.9549L2.39097 12.5201L1.88186 14.2301L2.26623 14.3442L3.82497 14.8089L4.3568 13.0229L5.73134 13.4324L5.19951 15.2179L6.79886 15.6946L7.33069 13.9086L7.78081 14.0425C8.0632 14.127 8.35633 14.1702 8.65108 14.1707C9.15481 14.1701 9.65042 14.0436 10.0928 13.8027C10.4444 13.6138 10.7551 13.357 11.0068 13.0472C11.2585 12.7374 11.4462 12.3807 11.5592 11.9979C11.6751 11.6083 11.7115 11.1994 11.666 10.7954C11.6206 10.3915 11.4943 10.0008 11.2948 9.64673C11.6558 9.45935 11.9754 9.20117 12.2344 8.88759C12.4935 8.57402 12.6868 8.21148 12.8027 7.82159C12.9181 7.43954 12.9566 7.03839 12.9159 6.64138C12.8753 6.24436 12.7563 5.85934 12.5658 5.50862ZM11.053 6.32715C11.1359 6.47926 11.1877 6.6463 11.2056 6.81859C11.2234 6.99088 11.2069 7.165 11.157 7.33086C11.0568 7.66577 10.8279 7.94729 10.5205 8.11369C10.213 8.2801 9.85217 8.3178 9.51699 8.21853L6.13794 7.21192L6.89024 4.68428L10.2698 5.69089C10.4359 5.73996 10.5906 5.82145 10.7251 5.93065C10.8595 6.03986 10.971 6.17462 11.053 6.32715ZM9.91296 11.5067C9.86407 11.6729 9.78266 11.8278 9.67343 11.9624C9.56421 12.0969 9.42936 12.2084 9.2767 12.2904C9.12457 12.3732 8.95754 12.425 8.78526 12.4429C8.61297 12.4607 8.43886 12.4442 8.27299 12.3944L4.89346 11.3882L5.64624 8.86011L9.02529 9.86671C9.36037 9.96667 9.64209 10.1955 9.80861 10.503C9.97512 10.8105 10.0128 11.1714 9.91345 11.5067H9.91296Z" fill="white"/>
</svg>
